<svg aria-hidden="true" style="position: absolute; width: 0; height: 0; overflow: hidden;"
    version="1.1" xmlns="http://www.w3.org/2000/svg" xmlns:xlink="http://www.w3.org/1999/xlink">
    <defs>
        <symbol id="icon-sun" viewBox="0 0 32 32">
            <path
                d="M16 26c1.105 0 2 0.895 2 2v2c0 1.105-0.895 2-2 2s-2-0.895-2-2v-2c0-1.105 0.895-2 2-2zM16 6c-1.105 0-2-0.895-2-2v-2c0-1.105 0.895-2 2-2s2 0.895 2 2v2c0 1.105-0.895 2-2 2zM30 14c1.105 0 2 0.895 2 2s-0.895 2-2 2h-2c-1.105 0-2-0.895-2-2s0.895-2 2-2h2zM6 16c0 1.105-0.895 2-2 2h-2c-1.105 0-2-0.895-2-2s0.895-2 2-2h2c1.105 0 2 0.895 2 2zM25.899 23.071l1.414 1.414c0.781 0.781 0.781 2.047 0 2.828s-2.047 0.781-2.828 0l-1.414-1.414c-0.781-0.781-0.781-2.047 0-2.828s2.047-0.781 2.828 0zM6.101 8.929l-1.414-1.414c-0.781-0.781-0.781-2.047 0-2.828s2.047-0.781 2.828 0l1.414 1.414c0.781 0.781 0.781 2.047 0 2.828s-2.047 0.781-2.828 0zM25.899 8.929c-0.781 0.781-2.047 0.781-2.828 0s-0.781-2.047 0-2.828l1.414-1.414c0.781-0.781 2.047-0.781 2.828 0s0.781 2.047 0 2.828l-1.414 1.414zM6.101 23.071c0.781-0.781 2.047-0.781 2.828 0s0.781 2.047 0 2.828l-1.414 1.414c-0.781 0.781-2.047 0.781-2.828 0s-0.781-2.047 0-2.828l1.414-1.414z"></path>
            <path
                d="M16 8c-4.418 0-8 3.582-8 8s3.582 8 8 8c4.418 0 8-3.582 8-8s-3.582-8-8-8zM16 21c-2.761 0-5-2.239-5-5s2.239-5 5-5 5 2.239 5 5-2.239 5-5 5z"></path>
        </symbol>
        <symbol id="icon-moon" viewBox="0 0 24 24">
            <path
                d="M21.996 12.882c0.022-0.233-0.038-0.476-0.188-0.681-0.325-0.446-0.951-0.544-1.397-0.219-0.95 0.693-2.060 1.086-3.188 1.162-1.368 0.092-2.765-0.283-3.95-1.158-1.333-0.985-2.139-2.415-2.367-3.935s0.124-3.124 1.109-4.456c0.142-0.191 0.216-0.435 0.191-0.691-0.053-0.55-0.542-0.952-1.092-0.898-2.258 0.22-4.314 1.18-5.895 2.651-1.736 1.615-2.902 3.847-3.137 6.386-0.254 2.749 0.631 5.343 2.266 7.311s4.022 3.313 6.772 3.567 5.343-0.631 7.311-2.266 3.313-4.022 3.567-6.772zM19.567 14.674c-0.49 1.363-1.335 2.543-2.416 3.441-1.576 1.309-3.648 2.016-5.848 1.813s-4.108-1.278-5.417-2.854-2.016-3.648-1.813-5.848c0.187-2.032 1.117-3.814 2.507-5.106 0.782-0.728 1.71-1.3 2.731-1.672-0.456 1.264-0.577 2.606-0.384 3.899 0.303 2.023 1.38 3.934 3.156 5.247 1.578 1.167 3.448 1.668 5.272 1.545 0.752-0.050 1.496-0.207 2.21-0.465z"></path>
        </symbol>
    </defs>
</svg>